# xmcd CD database file
#
# Track frame offsets:
#	150
#	13449
#	29314
#	46234
#	63409
#	78581
#	94788
#	112446
#	125602
#	141926
#	156786
#	168063
#	184187
#	198193
#	211151
#	227831
#	245366
#	261218
#	287961
#	305306
#	321169
#	335152
#
# Disc length: 4728 seconds
#
# Revision: 5
# Processed by: cddbd v1.5.1PL2 Copyright (c) Steve Scherf et al.
# Submitted via: CDex 1.51
#
DISCID=47127616
DTITLE=Viva Express 2 - Viva Express 2 CD 2
DYEAR=2005
DGENRE=Karneval
TTITLE0=Höhner - Jetzt gehts los
TTITLE1=Brings - Man müsste noch mal 20 sein
TTITLE2=Bläck Fööss - Wenn et Lech usjing em Roxy
TTITLE3=Paveier - Loss se schwaade
TTITLE4=Höhner - Der liebe Gott weis das ich kein Engel bin
TTITLE5=Bläck Fööss - Katrin
TTITLE6=Räuber - Und sie war nicht viel älter als 18 Jahr
TTITLE7=Höhner - Alles was ich will
TTITLE8=Brings - Poppe Kaate Danze
TTITLE9=Höhner - Wo mir sin Kölle
TTITLE10=Colonia Orchester - Es war einmal ein treuer Husar
TTITLE11=Bläck Fööss - En dr Kayjass Nummer Null
TTITLE12=Eilemann Trio - De Hüscher bunt om Aldermaat
TTITLE13=Fritz Weber - Nüngzehnhundert Johr steiht uns Kölle am Rhing
TTITLE14=Bläck Fööss - Kaffeebud
TTITLE15=Räuber - Am Eigelstein es Musik
TTITLE16=Paveier - Noch kein Loss noh Hus ze jonn
TTITLE17=Bläck Fööss - Buredanz
TTITLE18=Höhner - Mer stonn zo dir FC Kölle
TTITLE19=Ludwig Sebus - Am Dom zo Kölle
TTITLE20=Horst Muys - Heidewitzka Herr Kapitän
TTITLE21=Klassiker - Rheinische Lieder 2
EXTD=YEAR: 2005
EXTT0=
EXTT1=
EXTT2=
EXTT3=
EXTT4=
EXTT5=
EXTT6=
EXTT7=
EXTT8=
EXTT9=
EXTT10=
EXTT11=
EXTT12=
EXTT13=
EXTT14=
EXTT15=
EXTT16=
EXTT17=
EXTT18=
EXTT19=
EXTT20=
EXTT21=
PLAYORDER=
